# xmcd CD database file
#
# Track frame offsets:
#	150
#	48367
#	111727
#	145501
#	195447
#	219207
#	251756
#
# Disc length: 3869 seconds
#
# Revision: 0
# Processed by: cddbd v1.5.2PL0 Copyright (c) Steve Scherf et al.
# Submitted via: CDex 1.51
#
DISCID=610f1b07
DTITLE=Mark Izu - Threading Time
DYEAR=2007
DGENRE=Jazz
TTITLE0=Mermaid In A SIlent Sea
TTITLE1=Threading TIme
TTITLE2=Stick SOng
TTITLE3=Amaterasu
TTITLE4=String Theory
TTITLE5=SOul Of The Great Bell
TTITLE6=Scatterd Scars
EXTD=YEAR: 2007
EXTT0=
EXTT1=
EXTT2=
EXTT3=
EXTT4=
EXTT5=
EXTT6=
PLAYORDER=
